<?xml version="1.0" standalone="no"?>
<!DOCTYPE svg PUBLIC "-//W3C//DTD SVG 20010904//EN"
 "http://www.w3.org/TR/2001/REC-SVG-20010904/DTD/svg10.dtd">
<svg version="1.0" xmlns="http://www.w3.org/2000/svg"
 width="704.000000pt" height="704.000000pt" viewBox="0 0 704.000000 704.000000"
 preserveAspectRatio="xMidYMid meet">

<g transform="translate(0.000000,704.000000) scale(0.100000,-0.100000)"
fill="#000000" stroke="none">
<path d="M3293 7013 c9 -2 25 -2 35 0 9 3 1 5 -18 5 -19 0 -27 -2 -17 -5z"/>
<path d="M3693 7013 c9 -2 25 -2 35 0 9 3 1 5 -18 5 -19 0 -27 -2 -17 -5z"/>
<path d="M3168 7003 c6 -2 18 -2 25 0 6 3 1 5 -13 5 -14 0 -19 -2 -12 -5z"/>
<path d="M3823 7003 c9 -2 23 -2 30 0 6 3 -1 5 -18 5 -16 0 -22 -2 -12 -5z"/>
<path d="M3078 6993 c6 -2 18 -2 25 0 6 3 1 5 -13 5 -14 0 -19 -2 -12 -5z"/>
<path d="M3918 6993 c6 -2 18 -2 25 0 6 3 1 5 -13 5 -14 0 -19 -2 -12 -5z"/>
<path d="M2998 6983 c6 -2 18 -2 25 0 6 3 1 5 -13 5 -14 0 -19 -2 -12 -5z"/>
<path d="M3998 6983 c6 -2 18 -2 25 0 6 3 1 5 -13 5 -14 0 -19 -2 -12 -5z"/>
<path d="M2938 6973 c7 -3 16 -2 19 1 4 3 -2 6 -13 5 -11 0 -14 -3 -6 -6z"/>
<path d="M4068 6973 c7 -3 16 -2 19 1 4 3 -2 6 -13 5 -11 0 -14 -3 -6 -6z"/>
<path d="M3345 6859 c-530 -24 -1035 -171 -1500 -439 -617 -354 -1096 -884
-1390 -1538 -69 -152 -175 -467 -209 -622 -220 -999 16 -2030 645 -2820 567
-712 1381 -1156 2293 -1250 141 -15 510 -15 651 0 483 50 928 193 1340 430
495 284 905 685 1200 1175 118 194 268 520 313 675 5 19 22 76 36 125 169 573
173 1239 11 1816 -337 1197 -1286 2100 -2495 2374 -160 37 -374 65 -532 71
-79 2 -156 6 -173 7 -16 2 -102 0 -190 -4z m311 -2384 c86 -99 160 -184 164
-189 5 -4 45 5 91 20 48 17 84 25 86 19 41 -100 163 -340 173 -342 8 -1 50 -5
92 -8 l76 -7 81 -127 c45 -71 81 -132 81 -136 0 -18 -31 22 -96 124 -38 61
-72 111 -76 111 -4 0 -15 -13 -24 -29 -14 -24 -25 -30 -63 -34 -32 -2 -50 1
-58 10 -6 8 -53 106 -104 219 -51 112 -96 201 -99 197 -14 -16 -29 -100 -35
-190 -5 -73 -3 -98 10 -122 21 -41 12 -40 -13 2 -11 17 -23 61 -26 96 l-7 63
-212 244 c-116 134 -212 242 -213 241 -1 -1 -43 -68 -92 -149 l-91 -148 70
-106 c39 -59 67 -110 62 -113 -4 -4 -64 -25 -132 -46 -97 -31 -126 -45 -134
-62 -6 -13 -15 -23 -21 -23 -6 0 -69 39 -141 85 -108 71 -130 83 -138 70 -5
-9 -11 -60 -13 -113 -4 -79 -10 -106 -31 -148 -16 -31 -36 -55 -51 -60 l-24
-9 41 -51 c23 -29 41 -54 41 -57 0 -3 -71 -6 -157 -6 l-158 -1 107 103 c105
99 109 105 164 222 31 66 60 130 65 143 9 22 9 22 75 -19 37 -24 69 -38 72
-32 26 37 486 543 493 541 4 -2 79 -84 165 -183z m-561 -659 c39 -8 106 -18
149 -22 75 -6 82 -9 120 -46 l41 -39 -30 7 c-16 3 -66 19 -109 36 -60 22 -95
29 -149 29 -66 0 -117 17 -117 40 0 12 13 11 95 -5z m944 -46 c51 -10 95 -21
98 -24 3 -2 0 -13 -6 -24 -10 -20 -21 -21 -226 -22 -118 0 -215 3 -215 7 0 5
14 25 31 46 l30 37 97 0 c56 0 136 -8 191 -20z m-1189 -646 c0 -48 -4 -66 -15
-70 -13 -5 -15 -43 -15 -257 0 -295 -3 -287 93 -287 100 0 97 -9 97 280 0 208
-2 250 -15 260 -10 9 -15 32 -15 76 l0 63 90 3 c50 2 95 2 100 0 17 -6 12
-128 -5 -142 -13 -11 -15 -56 -15 -293 l0 -281 -52 -53 -52 -53 -131 0 -131 0
-57 58 -57 58 0 281 c0 177 -4 284 -10 288 -13 8 -13 132 0 137 5 2 50 2 100
0 l90 -3 0 -65z m859 12 l49 -53 1 -146 2 -146 -35 -39 -35 -39 25 -94 c14
-52 32 -101 40 -110 9 -10 14 -38 14 -77 l0 -62 -100 0 -100 0 0 63 c0 35 4
67 10 73 6 6 6 22 0 44 -5 19 -14 54 -20 78 l-11 42 -54 0 -55 0 0 -79 c0 -61
3 -80 15 -85 11 -4 15 -22 15 -71 l0 -65 -100 0 -100 0 0 64 c0 36 5 68 10 71
6 4 10 107 10 275 0 168 -4 271 -10 275 -5 3 -10 35 -10 70 l0 65 178 2 c97 2
185 1 194 -1 9 -1 39 -27 67 -55z m-2292 2 l53 -52 0 -79 0 -78 -72 3 -72 3 0
41 c-1 60 -18 74 -85 74 -31 0 -62 -5 -69 -12 -7 -7 -12 -43 -12 -90 0 -94 4
-98 122 -98 l82 0 53 -52 53 -52 0 -135 0 -135 -52 -53 -52 -53 -125 0 -125 0
-53 52 -53 52 0 78 0 78 75 0 75 0 0 -48 c0 -26 5 -53 12 -60 7 -7 37 -12 68
-12 77 0 92 17 89 102 -3 91 -12 98 -123 98 l-90 0 -53 52 -53 52 0 135 0 135
52 53 52 53 125 0 125 0 53 -52z m573 -33 l0 -85 -64 0 c-44 0 -67 5 -76 15
-8 10 -30 15 -61 15 l-49 0 0 -100 0 -100 95 0 95 0 0 -70 0 -70 -95 0 -95 0
0 -100 0 -100 49 0 c31 0 53 5 61 15 9 10 32 15 76 15 l64 0 0 -85 0 -85 -215
0 -215 0 0 65 c0 49 4 67 15 71 13 5 15 45 15 269 0 221 -2 265 -15 275 -10 9
-15 32 -15 76 l0 64 215 0 215 0 0 -85z m517 33 l53 -52 0 -78 0 -78 -75 0
-75 0 0 48 c0 26 -5 53 -12 60 -16 16 -140 16 -156 0 -9 -9 -12 -80 -12 -260
0 -234 1 -248 19 -258 27 -14 134 -13 149 2 7 7 12 34 12 60 l0 48 75 0 75 0
0 -77 0 -77 -52 -53 -52 -53 -135 0 -135 0 -53 52 -53 52 0 305 0 305 52 53
52 53 135 0 135 0 53 -52z m1773 -33 l0 -85 -69 0 c-53 0 -70 4 -75 16 -4 11
-18 14 -58 12 l-53 -3 0 -95 0 -95 93 -3 92 -3 0 -69 0 -70 -95 0 -96 0 3 -97
3 -98 53 -3 c40 -2 54 1 58 12 5 12 22 16 75 16 l69 0 0 -85 0 -85 -215 0
-215 0 0 64 c0 36 5 68 10 71 6 4 10 107 10 275 0 168 -4 271 -10 275 -5 3
-10 35 -10 71 l0 64 215 0 215 0 0 -85z m517 33 l53 -52 0 -78 0 -78 -75 0
-75 0 0 48 c0 26 -5 53 -12 60 -16 16 -140 16 -156 0 -17 -17 -17 -499 0 -516
15 -15 122 -16 149 -2 17 9 19 22 19 100 l0 89 -32 3 -33 3 -3 68 -3 67 111 0
110 0 0 -187 0 -187 -52 -53 -52 -53 -135 0 -135 0 -53 52 -53 52 0 305 0 305
52 53 52 53 135 0 135 0 53 -52z m574 2 l49 -50 0 -162 0 -162 -52 -53 -52
-53 -103 0 -103 0 0 -74 c0 -45 4 -76 11 -78 9 -3 13 -59 10 -125 -1 -10 -27
-13 -96 -13 l-95 0 0 64 c0 36 5 68 10 71 6 4 10 107 10 275 0 168 -4 271 -10
275 -5 3 -10 35 -10 71 l0 64 191 0 191 0 49 -50z m639 -35 l0 -85 -69 0 c-52
0 -70 4 -75 15 -3 8 -10 15 -16 15 -14 0 -14 -536 0 -545 6 -3 10 -35 10 -71
l0 -64 -100 0 -100 0 0 64 c0 44 5 67 15 76 13 10 15 53 15 271 0 181 -3 260
-11 265 -7 4 -16 -1 -21 -10 -7 -12 -24 -16 -78 -16 l-70 0 0 85 0 85 250 0
250 0 0 -85z"/>
<path d="M3440 2936 l0 -116 73 0 c43 0 78 5 85 12 7 7 12 45 12 98 0 108 -7
117 -102 119 l-68 2 0 -115z"/>
<path d="M5110 2925 l0 -125 68 0 c94 0 102 10 102 127 0 114 -8 123 -103 123
l-67 0 0 -125z"/>
<path d="M5590 6336 c0 -2 8 -10 18 -17 15 -13 16 -12 3 4 -13 16 -21 21 -21
13z"/>
<path d="M1319 6253 c-13 -16 -12 -17 4 -4 9 7 17 15 17 17 0 8 -8 3 -21 -13z"/>
<path d="M5680 6266 c0 -2 8 -10 18 -17 15 -13 16 -12 3 4 -13 16 -21 21 -21
13z"/>
<path d="M1269 6213 c-13 -16 -12 -17 4 -4 9 7 17 15 17 17 0 8 -8 3 -21 -13z"/>
<path d="M5745 6210 c10 -11 20 -20 23 -20 3 0 -3 9 -13 20 -10 11 -20 20 -23
20 -3 0 3 -9 13 -20z"/>
<path d="M1194 6148 l-19 -23 23 19 c21 18 27 26 19 26 -2 0 -12 -10 -23 -22z"/>
<path d="M5815 6150 c10 -11 20 -20 23 -20 3 0 -3 9 -13 20 -10 11 -20 20 -23
20 -3 0 3 -9 13 -20z"/>
<path d="M1025 5988 l-100 -103 103 100 c56 55 102 101 102 102 0 8 -12 -4
-105 -99z"/>
<path d="M5980 5995 c52 -52 97 -95 100 -95 2 0 -38 43 -90 95 -52 52 -97 95
-100 95 -2 0 38 -43 90 -95z"/>
<path d="M869 5823 c-13 -16 -12 -17 4 -4 16 13 21 21 13 21 -2 0 -10 -8 -17
-17z"/>
<path d="M6130 5836 c0 -2 8 -10 18 -17 15 -13 16 -12 3 4 -13 16 -21 21 -21
13z"/>
<path d="M6195 5760 c10 -11 20 -20 23 -20 3 0 -3 9 -13 20 -10 11 -20 20 -23
20 -3 0 3 -9 13 -20z"/>
<path d="M809 5753 c-13 -16 -12 -17 4 -4 16 13 21 21 13 21 -2 0 -10 -8 -17
-17z"/>
<path d="M769 5703 c-13 -16 -12 -17 4 -4 16 13 21 21 13 21 -2 0 -10 -8 -17
-17z"/>
<path d="M6230 5716 c0 -2 8 -10 18 -17 15 -13 16 -12 3 4 -13 16 -21 21 -21
13z"/>
<path d="M699 5613 c-13 -16 -12 -17 4 -4 16 13 21 21 13 21 -2 0 -10 -8 -17
-17z"/>
<path d="M6300 5626 c0 -2 8 -10 18 -17 15 -13 16 -12 3 4 -13 16 -21 21 -21
13z"/>
<path d="M51 4084 c0 -11 3 -14 6 -6 3 7 2 16 -1 19 -3 4 -6 -2 -5 -13z"/>
<path d="M6961 4084 c0 -11 3 -14 6 -6 3 7 2 16 -1 19 -3 4 -6 -2 -5 -13z"/>
<path d="M41 4024 c0 -11 3 -14 6 -6 3 7 2 16 -1 19 -3 4 -6 -2 -5 -13z"/>
<path d="M6971 4024 c0 -11 3 -14 6 -6 3 7 2 16 -1 19 -3 4 -6 -2 -5 -13z"/>
<path d="M31 3944 c0 -11 3 -14 6 -6 3 7 2 16 -1 19 -3 4 -6 -2 -5 -13z"/>
<path d="M6981 3944 c0 -11 3 -14 6 -6 3 7 2 16 -1 19 -3 4 -6 -2 -5 -13z"/>
<path d="M22 3860 c0 -14 2 -19 5 -12 2 6 2 18 0 25 -3 6 -5 1 -5 -13z"/>
<path d="M6992 3855 c0 -16 2 -22 5 -12 2 9 2 23 0 30 -3 6 -5 -1 -5 -18z"/>
<path d="M12 3730 c0 -19 2 -27 5 -17 2 9 2 25 0 35 -3 9 -5 1 -5 -18z"/>
<path d="M7002 3725 c0 -16 2 -22 5 -12 2 9 2 23 0 30 -3 6 -5 -1 -5 -18z"/>
<path d="M7003 3320 c0 -25 2 -35 4 -22 2 12 2 32 0 45 -2 12 -4 2 -4 -23z"/>
<path d="M13 3315 c0 -22 2 -30 4 -17 2 12 2 30 0 40 -3 9 -5 -1 -4 -23z"/>
<path d="M6992 3195 c0 -16 2 -22 5 -12 2 9 2 23 0 30 -3 6 -5 -1 -5 -18z"/>
<path d="M22 3180 c0 -14 2 -19 5 -12 2 6 2 18 0 25 -3 6 -5 1 -5 -13z"/>
<path d="M6981 3104 c0 -11 3 -14 6 -6 3 7 2 16 -1 19 -3 4 -6 -2 -5 -13z"/>
<path d="M31 3094 c0 -11 3 -14 6 -6 3 7 2 16 -1 19 -3 4 -6 -2 -5 -13z"/>
<path d="M6971 3024 c0 -11 3 -14 6 -6 3 7 2 16 -1 19 -3 4 -6 -2 -5 -13z"/>
<path d="M41 3014 c0 -11 3 -14 6 -6 3 7 2 16 -1 19 -3 4 -6 -2 -5 -13z"/>
<path d="M51 2954 c0 -11 3 -14 6 -6 3 7 2 16 -1 19 -3 4 -6 -2 -5 -13z"/>
<path d="M6951 2904 c0 -11 3 -14 6 -6 3 7 2 16 -1 19 -3 4 -6 -2 -5 -13z"/>
<path d="M720 1396 c0 -2 8 -10 18 -17 15 -13 16 -12 3 4 -13 16 -21 21 -21
13z"/>
<path d="M760 1346 c0 -2 8 -10 18 -17 15 -13 16 -12 3 4 -13 16 -21 21 -21
13z"/>
<path d="M815 1280 c10 -11 20 -20 23 -20 3 0 -3 9 -13 20 -10 11 -20 20 -23
20 -3 0 3 -9 13 -20z"/>
<path d="M6164 1248 l-19 -23 23 19 c12 11 22 21 22 23 0 8 -8 2 -26 -19z"/>
<path d="M875 1210 c10 -11 20 -20 23 -20 3 0 -3 9 -13 20 -10 11 -20 20 -23
20 -3 0 3 -9 13 -20z"/>
<path d="M6099 1173 l-24 -28 28 24 c15 14 27 26 27 28 0 8 -8 1 -31 -24z"/>
<path d="M1035 1040 c55 -55 102 -100 105 -100 2 0 -40 45 -95 100 -55 55
-102 100 -105 100 -2 0 40 -45 95 -100z"/>
<path d="M5839 913 l-24 -28 28 24 c15 14 27 26 27 28 0 8 -8 1 -31 -24z"/>
<path d="M1205 880 c10 -11 20 -20 23 -20 3 0 -3 9 -13 20 -10 11 -20 20 -23
20 -3 0 3 -9 13 -20z"/>
<path d="M5759 843 c-13 -16 -12 -17 4 -4 16 13 21 21 13 21 -2 0 -10 -8 -17
-17z"/>
<path d="M1260 836 c0 -2 8 -10 18 -17 15 -13 16 -12 3 4 -13 16 -21 21 -21
13z"/>
<path d="M1310 796 c0 -2 8 -10 18 -17 15 -13 16 -12 3 4 -13 16 -21 21 -21
13z"/>
<path d="M2938 63 c7 -3 16 -2 19 1 4 3 -2 6 -13 5 -11 0 -14 -3 -6 -6z"/>
<path d="M4068 63 c7 -3 16 -2 19 1 4 3 -2 6 -13 5 -11 0 -14 -3 -6 -6z"/>
<path d="M2998 53 c6 -2 18 -2 25 0 6 3 1 5 -13 5 -14 0 -19 -2 -12 -5z"/>
<path d="M3998 53 c6 -2 18 -2 25 0 6 3 1 5 -13 5 -14 0 -19 -2 -12 -5z"/>
<path d="M3088 43 c7 -3 16 -2 19 1 4 3 -2 6 -13 5 -11 0 -14 -3 -6 -6z"/>
<path d="M3918 43 c6 -2 18 -2 25 0 6 3 1 5 -13 5 -14 0 -19 -2 -12 -5z"/>
<path d="M3168 33 c6 -2 18 -2 25 0 6 3 1 5 -13 5 -14 0 -19 -2 -12 -5z"/>
<path d="M3823 33 c9 -2 23 -2 30 0 6 3 -1 5 -18 5 -16 0 -22 -2 -12 -5z"/>
<path d="M3293 23 c9 -2 25 -2 35 0 9 3 1 5 -18 5 -19 0 -27 -2 -17 -5z"/>
<path d="M3693 23 c9 -2 25 -2 35 0 9 3 1 5 -18 5 -19 0 -27 -2 -17 -5z"/>
</g>
</svg>
